<svg width="40" height="40" viewBox="0 0 40 40" fill="none" xmlns="http://www.w3.org/2000/svg">
<path fill-rule="evenodd" clip-rule="evenodd" d="M17.4088 3.03796C16.0681 3.03796 14.9275 3.9696 14.6074 5.22529H25.3727C25.0526 3.9696 23.912 3.03796 22.5713 3.03796H17.4088ZM28.4142 5.22529H32.3762C36.5783 5.22529 40 8.68856 40 12.9417C40 12.9417 39.8799 14.7422 39.8399 17.2495C39.8359 17.448 39.7399 17.6424 39.5818 17.7599C38.6193 18.4708 37.7389 19.0581 37.6588 19.0986C34.3372 21.3265 30.4772 22.8941 26.3652 23.6738C26.097 23.7265 25.8329 23.5867 25.6968 23.3477C24.5443 21.3508 22.3912 20.0505 19.99 20.0505C17.6048 20.0505 15.4317 21.3366 14.2451 23.3356C14.1071 23.5705 13.8469 23.7062 13.5808 23.6556C9.50275 22.8738 5.64282 21.3082 2.34117 19.1189L0.42021 17.7822C0.26013 17.6809 0.16008 17.4986 0.16008 17.2961C0.10005 16.2632 0 12.9417 0 12.9417C0 8.68856 3.42171 5.22529 7.62381 5.22529H11.5658C11.946 2.2886 14.4072 0 17.4087 0H22.5713C25.5728 0 28.034 2.2886 28.4142 5.22529ZM39.3197 21.6305L39.2397 21.671C35.1976 24.3849 30.3352 26.1874 25.2327 26.9368C24.5123 27.038 23.7919 26.5722 23.5918 25.8431C23.1516 24.1824 21.7309 23.0887 20.0301 23.0887H20.0101H19.97C18.2692 23.0887 16.8485 24.1824 16.4083 25.8431C16.2082 26.5722 15.4878 27.038 14.7674 26.9368C9.66488 26.1874 4.80245 24.3849 0.760428 21.671C0.740418 21.6507 0.540318 21.5292 0.380238 21.6305C0.200148 21.7317 0.200148 21.9748 0.200148 21.9748L0.340218 32.3038C0.340218 36.557 3.74192 40 7.94402 40H32.0361C36.2382 40 39.6399 36.557 39.6399 32.3038L39.7999 21.9748C39.7999 21.9748 39.7999 21.7317 39.6199 21.6305C39.5198 21.5697 39.3997 21.59 39.3197 21.6305ZM21.4908 30.1165C21.4908 30.9671 20.8304 31.6355 19.99 31.6355C19.1696 31.6355 18.4893 30.9671 18.4893 30.1165V27.5039C18.4893 26.6735 19.1696 25.9849 19.99 25.9849C20.8304 25.9849 21.4908 26.6735 21.4908 27.5039V30.1165Z" fill="black"/>
</svg>
