<svg width="12" height="13" viewBox="0 0 12 13" fill="none" xmlns="http://www.w3.org/2000/svg">
<path fill-rule="evenodd" clip-rule="evenodd" d="M8.57301 1.11499L8.57359 1.55227C10.1805 1.6782 11.2419 2.77316 11.2437 4.45231L11.25 9.36735C11.2523 11.1981 10.1021 12.3245 8.25855 12.3275L3.75527 12.3333C1.9232 12.3356 0.758643 11.1824 0.756339 9.34636L0.750004 4.48905C0.7477 2.79881 1.77172 1.70677 3.3786 1.55926L3.37802 1.12198C3.37745 0.865444 3.56751 0.672458 3.82092 0.672458C4.07434 0.671875 4.2644 0.864278 4.26497 1.12082L4.26555 1.52895L7.68664 1.52428L7.68606 1.11615C7.68549 0.859614 7.87555 0.66721 8.12896 0.666627C8.37662 0.666044 8.57244 0.858448 8.57301 1.11499ZM1.63752 4.66919L10.3573 4.65753V4.45347C10.3325 3.19993 9.70358 2.54226 8.57473 2.44431L8.57531 2.89325C8.57531 3.14396 8.38006 3.34278 8.13241 3.34278C7.87899 3.34336 7.68836 3.14512 7.68836 2.89442L7.68778 2.42215L4.26669 2.42682L4.26727 2.8985C4.26727 3.14979 4.07778 3.34802 3.82437 3.34802C3.57095 3.34861 3.38032 3.15096 3.38032 2.89966L3.37974 2.45072C2.25666 2.56325 1.63522 3.22325 1.63694 4.48787L1.63752 4.66919ZM7.88993 7.31912V7.32553C7.89568 7.59373 8.11454 7.79721 8.38005 7.79138C8.63923 7.78497 8.84599 7.56283 8.84023 7.29463C8.82813 7.03809 8.62022 6.82878 8.36162 6.82936C8.09669 6.83519 7.88935 7.05092 7.88993 7.31912ZM8.36567 9.93698C8.10073 9.93115 7.88706 9.71018 7.88648 9.44198C7.88072 9.17378 8.09325 8.95164 8.35818 8.94523H8.36394C8.63463 8.94523 8.85406 9.1662 8.85406 9.44023C8.85464 9.71426 8.63578 9.9364 8.36567 9.93698ZM5.51705 7.32844C5.52857 7.59664 5.74801 7.80595 6.01294 7.79429C6.27211 7.78205 6.47888 7.56049 6.46736 7.29229C6.46102 7.02993 6.24792 6.82586 5.98875 6.82645C5.72382 6.83811 5.51648 7.06024 5.51705 7.32844ZM6.01523 9.91074C5.7503 9.9224 5.53144 9.71309 5.51935 9.44489C5.51935 9.17669 5.72611 8.95513 5.99104 8.94289C6.25022 8.94231 6.46389 9.14637 6.46965 9.40816C6.48175 9.67694 6.27441 9.8985 6.01523 9.91074ZM3.14418 7.34885C3.1557 7.61705 3.37513 7.82694 3.64007 7.8147C3.89924 7.80304 4.106 7.5809 4.09391 7.3127C4.08815 7.05033 3.87505 6.84627 3.6153 6.84685C3.35037 6.85851 3.1436 7.08065 3.14418 7.34885ZM3.64239 9.91367C3.37745 9.92591 3.1586 9.71602 3.1465 9.44782C3.14593 9.17962 3.35327 8.95748 3.6182 8.94582C3.87737 8.94524 4.09105 9.1493 4.0968 9.41167C4.1089 9.67987 3.90214 9.90201 3.64239 9.91367Z" fill="#FFC736"/>
</svg>
