<svg width="38" height="38" viewBox="0 0 38 38" fill="none" xmlns="http://www.w3.org/2000/svg">
<path fill-rule="evenodd" clip-rule="evenodd" d="M0 19C0 8.512 8.493 0 19 0C29.488 0 38 8.512 38 19C38 29.507 29.488 38 19 38C8.493 38 0 29.507 0 19ZM23.2369 22.477L26.3149 12.749C26.5239 12.084 25.9159 11.457 25.2509 11.666L15.5229 14.706C15.1239 14.839 14.8009 15.143 14.6869 15.542L11.6469 25.289C11.4379 25.935 12.0649 26.562 12.7109 26.353L22.4009 23.313C22.7999 23.199 23.1229 22.876 23.2369 22.477Z" fill="black"/>
</svg>
