<svg width="40" height="40" viewBox="0 0 40 40" fill="none" xmlns="http://www.w3.org/2000/svg">
<path fill-rule="evenodd" clip-rule="evenodd" d="M22.8998 5.7604H29.0398C36.4198 5.7604 40.0198 9.7004 39.9998 17.7804V27.5204C39.9998 35.2404 35.2398 40.0004 27.4998 40.0004H12.4798C4.77976 40.0004 -0.000244141 35.2404 -0.000244141 27.5004V12.4804C-0.000244141 4.2004 3.67976 0.000402356 10.9398 0.000402356H14.0998C15.9618 -0.0195976 17.6998 0.840402 18.8398 2.3004L20.5998 4.6404C21.1598 5.3404 21.9998 5.7604 22.8998 5.7604ZM10.7397 26.5804H29.2597C30.0797 26.5804 30.7397 25.9004 30.7397 25.0804C30.7397 24.2404 30.0797 23.5804 29.2597 23.5804H10.7397C9.89974 23.5804 9.23974 24.2404 9.23974 25.0804C9.23974 25.9004 9.89974 26.5804 10.7397 26.5804Z" fill="black"/>
</svg>
