<svg width="34" height="40" viewBox="0 0 34 40" fill="none" xmlns="http://www.w3.org/2000/svg">
<path fill-rule="evenodd" clip-rule="evenodd" d="M20.891 21.78C21.4653 22.36 22.396 22.36 22.9702 21.78C23.5643 21.2 23.5643 20.26 22.99 19.68L17.3069 13.92C17.1683 13.78 17.0098 13.68 16.8316 13.6C16.6534 13.52 16.4752 13.48 16.2772 13.48C16.0791 13.48 15.8811 13.52 15.7029 13.6C15.5247 13.68 15.3663 13.78 15.2277 13.92L9.5643 19.68C8.99004 20.26 8.99004 21.2 9.5643 21.78C10.1386 22.36 11.0692 22.36 11.6435 21.78L14.792 18.58V28.24C14.792 29.06 15.4455 29.72 16.2772 29.72C17.089 29.72 17.7425 29.06 17.7425 28.24V18.58L20.891 21.78ZM31.6563 14.0512C32.1218 14.0458 32.6286 14.04 33.0891 14.04C33.5842 14.04 34 14.44 34 14.94V31.02C34 35.98 30 40 25.0891 40H9.34653C4.17822 40 0 35.78 0 30.58V9.02C0 4.06 3.9802 0 8.93069 0H19.5049C20 0 20.4158 0.42 20.4158 0.92V7.36C20.4158 11.02 23.3861 14.02 27.0297 14.04C27.8626 14.04 28.602 14.0463 29.2516 14.0518C29.7603 14.0561 30.2138 14.06 30.6139 14.06C30.8957 14.06 31.2611 14.0558 31.6563 14.0512ZM32.2093 11.132C30.5816 11.138 28.6648 11.132 27.2846 11.118C25.0945 11.118 23.2905 9.29599 23.2905 7.08399V1.81199C23.2905 0.94999 24.3242 0.52199 24.9163 1.14399C26.4416 2.74441 28.7769 5.19736 30.7504 7.27018C31.5489 8.10891 32.2881 8.8854 32.8905 9.51799C33.4667 10.124 33.043 11.13 32.2093 11.132Z" fill="black"/>
</svg>
