<svg width="15" height="15" viewBox="0 0 15 15" fill="none" xmlns="http://www.w3.org/2000/svg">
<path fill-rule="evenodd" clip-rule="evenodd" d="M1.59614 0H13.4039C14.2857 0 15 0.735789 15 1.64419V2.79282C15 3.2335 14.8278 3.65667 14.522 3.96531L9.64324 8.90027C9.55907 8.98618 9.44479 9.0339 9.32664 9.03311L5.2417 9.02038C5.11737 9.02038 4.99923 8.96708 4.91429 8.87402L0.430888 3.94304C0.153668 3.63838 0 3.23588 0 2.81827V1.64499C0 0.736585 0.714286 0 1.59614 0ZM5.46008 10.3681L9.10101 10.3792C9.32804 10.38 9.51182 10.5701 9.51182 10.8032V12.8515C9.51182 13.0854 9.379 13.2969 9.17205 13.3948L5.86703 14.9467C5.78981 14.9825 5.70796 15 5.62611 15C5.51722 15 5.40834 14.9682 5.31336 14.9053C5.14734 14.7956 5.04695 14.6062 5.04695 14.4034V10.7921C5.04695 10.5574 5.23228 10.3673 5.46008 10.3681Z" fill="#AEB9C9"/>
</svg>
