<svg width="38" height="35" viewBox="0 0 38 35" fill="none" xmlns="http://www.w3.org/2000/svg">
<path fill-rule="evenodd" clip-rule="evenodd" d="M28.3841 0C30.932 0 33.383 1.007 35.1861 2.8139C36.9911 4.617 38 7.049 38 9.595V24.605C38 29.906 33.687 34.2 28.3841 34.2H9.614C4.3111 34.2 0 29.906 0 24.605V9.595C0 4.294 4.2921 0 9.614 0H28.3841ZM31.4069 12.426L31.5589 12.274C32.013 11.723 32.013 10.925 31.538 10.374C31.2739 10.0909 30.911 9.918 30.5329 9.88C30.1339 9.8591 29.7539 9.994 29.467 10.26L20.8999 17.1C19.7979 18.0139 18.219 18.0139 17.0999 17.1L8.54987 10.26C7.95897 9.823 7.14197 9.88 6.64987 10.393C6.13687 10.906 6.07987 11.723 6.51497 12.293L6.76387 12.54L15.4089 19.285C16.4729 20.121 17.763 20.577 19.1139 20.577C20.461 20.577 21.7739 20.121 22.836 19.285L31.4069 12.426Z" fill="black"/>
</svg>
