<svg width="38" height="38" viewBox="0 0 38 38" fill="none" xmlns="http://www.w3.org/2000/svg">
<path fill-rule="evenodd" clip-rule="evenodd" d="M23.4759 0.0150665C23.052 -0.0456917 22.6263 0.0796222 22.2876 0.349237C21.9394 0.622649 21.7218 1.01758 21.6745 1.45997C21.5742 2.35426 22.2195 3.1631 23.1126 3.26373C29.2718 3.95106 34.0591 8.74907 34.7516 14.9274C34.8443 15.7553 35.5388 16.3799 36.3675 16.3799C36.43 16.3799 36.4905 16.3761 36.553 16.3685C36.9863 16.3211 37.3723 16.1065 37.6448 15.7647C37.9154 15.423 38.0384 14.9977 37.9892 14.5629C37.1263 6.85417 31.1602 0.871378 23.4759 0.0150665ZM23.5945 6.63087C22.69 6.46379 21.8593 7.04099 21.6871 7.92389C21.5149 8.80678 22.094 9.66879 22.9738 9.84157C25.6229 10.358 27.6684 12.4086 28.1869 15.0668V15.0687C28.3345 15.8339 29.0081 16.3902 29.7839 16.3902C29.888 16.3902 29.9921 16.3807 30.098 16.3617C30.9779 16.1851 31.5569 15.325 31.3847 14.4402C30.6108 10.47 27.5549 7.40364 23.5945 6.63087ZM25.9118 23.4732C23.7789 24.2204 21.3761 25.0622 17.1603 20.8475C12.9448 16.6332 13.7845 14.2292 14.5298 12.0953C15.1246 10.3927 15.6592 8.86203 13.5175 6.72092C12.938 6.14158 12.4165 5.59267 11.9361 5.08702C8.55952 1.53322 7.21334 0.116364 2.04054 5.2895C2.00185 5.33762 1.93537 5.40255 1.84945 5.48647C0.617258 6.68993 -4.61283 11.7981 10.8007 27.2074C26.2099 42.6123 31.3149 37.3823 32.519 36.1487C32.6032 36.0624 32.6683 35.9957 32.7165 35.957C37.8865 30.7884 36.465 29.4363 32.8984 26.0437C32.3985 25.5683 31.8566 25.0528 31.2847 24.4811C29.1432 22.3411 27.6134 22.877 25.9118 23.4732Z" fill="black"/>
</svg>
