<svg width="11" height="12" viewBox="0 0 11 12" fill="none" xmlns="http://www.w3.org/2000/svg">
<path fill-rule="evenodd" clip-rule="evenodd" d="M3.87349 8.56083H7.0154C7.2522 8.56083 7.44857 8.3625 7.44857 8.12333C7.44857 7.88417 7.2522 7.69167 7.0154 7.69167H3.87349C3.63669 7.69167 3.44032 7.88417 3.44032 8.12333C3.44032 8.3625 3.63669 8.56083 3.87349 8.56083ZM5.82563 4.775H3.87349C3.63669 4.775 3.44032 4.97333 3.44032 5.2125C3.44032 5.45167 3.63669 5.64417 3.87349 5.64417H5.82563C6.06243 5.64417 6.2588 5.45167 6.2588 5.2125C6.2588 4.97333 6.06243 4.775 5.82563 4.775ZM9.94737 4.2649C10.0831 4.26333 10.231 4.26163 10.3653 4.26163C10.5097 4.26163 10.6252 4.37829 10.6252 4.52413V9.21413C10.6252 10.6608 9.46427 11.8333 8.03193 11.8333H3.43457C1.93292 11.8333 0.708496 10.6025 0.708496 9.08579V2.79746C0.708496 1.35079 1.87516 0.166626 3.31328 0.166626H6.39744C6.54761 0.166626 6.66312 0.289126 6.66312 0.434959V2.31329C6.66312 3.38079 7.53523 4.25579 8.59216 4.26163C8.83904 4.26163 9.05668 4.26347 9.24715 4.26509C9.39533 4.26634 9.52707 4.26746 9.64332 4.26746C9.72553 4.26746 9.8321 4.26623 9.94737 4.2649ZM10.1067 3.41346C9.6319 3.41521 9.07225 3.41346 8.66969 3.40937C8.03091 3.40937 7.50476 2.87796 7.50476 2.23279V0.695122C7.50476 0.443706 7.80682 0.318872 7.97951 0.500289L10.3048 2.94271C10.4734 3.11946 10.3498 3.41287 10.1067 3.41346Z" fill="#A6B5C6"/>
</svg>
