<svg width="12" height="13" viewBox="0 0 12 13" fill="none" xmlns="http://www.w3.org/2000/svg">
<path d="M11.5041 1.00612C11.2123 0.706642 10.7804 0.595073 10.3778 0.712514L0.988079 3.44302C0.563239 3.56104 0.262116 3.89986 0.180999 4.33028C0.0981317 4.76834 0.387584 5.32442 0.765738 5.55695L3.70169 7.36143C4.00281 7.5464 4.39147 7.50001 4.64066 7.24869L8.00262 3.8658C8.17185 3.68964 8.45197 3.68964 8.62121 3.8658C8.79044 4.03609 8.79044 4.31208 8.62121 4.48824L5.25341 7.87171C5.00364 8.12245 4.95695 8.51294 5.14078 8.81594L6.93468 11.7813C7.14477 12.1336 7.50658 12.3333 7.90341 12.3333C7.9501 12.3333 8.00262 12.3333 8.0493 12.3274C8.50449 12.2687 8.86631 11.9575 9.00053 11.5171L11.7842 2.13942C11.9067 1.74012 11.7958 1.30559 11.5041 1.00612Z" fill="#A3BEDE"/>
</svg>
