<svg width="41" height="36" viewBox="0 0 41 36" fill="none" xmlns="http://www.w3.org/2000/svg">
<path fill-rule="evenodd" clip-rule="evenodd" d="M36.022 18.002C36.022 19.629 37.358 20.9528 39 20.9528C39.828 20.9528 40.5 21.6186 40.5 22.4391V27.7917C40.5 32.318 36.784 36 32.216 36H8.786C4.218 36 0.5 32.318 0.5 27.7917V22.4391C0.5 21.6186 1.172 20.9528 2 20.9528C3.644 20.9528 4.98 19.629 4.98 18.002C4.98 16.4166 3.698 15.2236 2 15.2236C1.602 15.2236 1.222 15.067 0.94 14.7876C0.658 14.5082 0.5 14.1297 0.5 13.7373L0.504 8.21028C0.504 3.68403 4.22 0 8.788 0H32.212C36.78 0 40.498 3.68403 40.498 8.21028L40.5 13.5649C40.5 13.9573 40.342 14.3378 40.062 14.6152C39.78 14.8946 39.4 15.0512 39 15.0512C37.358 15.0512 36.022 16.375 36.022 18.002ZM25.004 19.296L27.3619 17.021C27.7719 16.6286 27.9139 16.05 27.736 15.5149C27.5599 14.9799 27.0999 14.5994 26.5439 14.5221L23.2859 14.0504L21.8279 11.1254C21.5779 10.622 21.0699 10.3089 20.5039 10.3069H20.4999C19.9359 10.3069 19.4279 10.6201 19.1739 11.1234L17.716 14.0504L14.4639 14.5201C13.9019 14.5994 13.4419 14.9799 13.2639 15.5149C13.0879 16.05 13.2299 16.6286 13.6379 17.021L15.9959 19.296L15.4399 22.5124C15.3439 23.0673 15.5699 23.6182 16.0299 23.9491C16.2899 24.1334 16.5919 24.2286 16.8979 24.2286C17.1319 24.2286 17.3679 24.1711 17.584 24.0581L20.4999 22.5401L23.41 24.0542C23.9139 24.3217 24.5119 24.2801 24.9699 23.9472C25.4319 23.6182 25.6579 23.0673 25.562 22.5124L25.004 19.296Z" fill="black"/>
</svg>
