<svg width="12" height="13" viewBox="0 0 12 13" fill="none" xmlns="http://www.w3.org/2000/svg">
<path fill-rule="evenodd" clip-rule="evenodd" d="M6.00008 12.3334C2.78008 12.3334 0.166748 9.72591 0.166748 6.50008C0.166748 3.28008 2.78008 0.666748 6.00008 0.666748C9.22592 0.666748 11.8334 3.28008 11.8334 6.50008C11.8334 9.72591 9.22592 12.3334 6.00008 12.3334ZM7.8609 8.66425C7.9309 8.70508 8.00673 8.72841 8.0884 8.72841C8.23423 8.72841 8.38006 8.65258 8.46173 8.51258C8.58423 8.30841 8.52006 8.04008 8.31006 7.91175L6.2334 6.67508V3.98008C6.2334 3.73508 6.03506 3.54258 5.7959 3.54258C5.55673 3.54258 5.3584 3.73508 5.3584 3.98008V6.92591C5.3584 7.07758 5.44006 7.21758 5.57423 7.29925L7.8609 8.66425Z" fill="#A3BEDE"/>
</svg>
