<svg width="32" height="32" viewBox="0 0 32 32" fill="none" xmlns="http://www.w3.org/2000/svg">
<path d="M30.5926 8.19266C30.5926 8.19266 29.6001 3.45634 25.3126 1.79266C23.2964 0.992658 19.6163 0.640146 16 0.607666C12.3837 0.640165 8.70367 0.992658 6.68735 1.76018C2.39999 3.42392 1.40735 8.16018 1.40735 8.16018C0.767353 10.8477 0.543609 13.5675 0.574841 15.9675C0.542342 18.3675 0.734841 21.1202 1.40735 23.7749C1.40735 23.7749 2.39987 28.5112 6.68735 30.1749C8.70361 30.9424 12.3837 31.3274 16 31.3586C19.6163 31.3261 23.2963 30.9749 25.3126 30.1749C29.6 28.5112 30.5926 23.7749 30.5926 23.7749C31.2326 21.0874 31.4564 18.3675 31.4251 15.9675C31.4564 13.6 31.2639 10.8475 30.5926 8.1925V8.19266ZM22.5277 22.4327H9.47263V20.4801H22.56V22.4327H22.5277ZM22.5277 16.864H9.47263V14.9115H22.56V16.864H22.5277ZM22.5277 11.5203H9.47263V9.56783H22.56V11.5203H22.5277Z" fill="#0F2845"/>
</svg>
